<?xml version="1.0" encoding="utf-8"?>
<!-- Generator: Adobe Illustrator 24.0.1, SVG Export Plug-In . SVG Version: 6.00 Build 0)  -->
<svg version="1.1" id="Layer_1" xmlns="http://www.w3.org/2000/svg" xmlns:xlink="http://www.w3.org/1999/xlink" x="0px" y="0px"
	 viewBox="0 0 100 3" style="enable-background:new 0 0 100 3;" xml:space="preserve">
<style type="text/css">
	.st0{fill:#CDAB63;}
</style>
<path class="st0" d="M-7.27,2.04c9.47-0.81,19.02-1.42,28.63-1.78c9.61-0.35,19.29-0.46,28.96-0.04c2.41,0.13,4.83,0.26,7.22,0.47
	c2.42,0.2,4.76,0.48,7.07,0.68c4.66,0.43,9.4,0.66,14.16,0.75c9.52,0.16,19.09-0.32,28.49-1.31c-4.58,0.72-9.29,1.24-14.05,1.63
	C88.44,2.81,83.6,3.01,78.75,3c-4.85,0.01-9.71-0.2-14.5-0.58c-1.2-0.09-2.4-0.21-3.58-0.33c-1.17-0.11-2.32-0.23-3.49-0.32
	c-2.33-0.2-4.7-0.32-7.06-0.44c-9.48-0.43-19.07-0.38-28.64-0.2C11.9,1.33,2.32,1.66-7.27,2.04z"/>
</svg>
