<?xml version="1.0" encoding="utf-8"?>
<!-- Generator: Adobe Illustrator 24.0.1, SVG Export Plug-In . SVG Version: 6.00 Build 0)  -->
<svg version="1.1" id="Layer_1" xmlns="http://www.w3.org/2000/svg" xmlns:xlink="http://www.w3.org/1999/xlink" x="0px" y="0px"
	 viewBox="0 0 50 9" style="enable-background:new 0 0 50 9;" xml:space="preserve">
<style type="text/css">
	.st0{fill:#CDAB63;}
</style>
<path class="st0" d="M0,4.02c2.14-0.49,4.17-0.87,6.26-1.24c2.08-0.36,4.15-0.68,6.23-0.97c4.16-0.58,8.33-1.01,12.5-1.3
	c2.08-0.17,4.18-0.24,6.26-0.34c2.09-0.03,4.17-0.13,6.26-0.09C41.69,0.04,45.86,0.29,50,0.6c-4.16,0.12-8.3,0.3-12.41,0.76
	c-2.06,0.17-4.11,0.48-6.16,0.73c-2.04,0.32-4.09,0.59-6.12,0.97c-4.07,0.7-8.1,1.55-12.1,2.53c-2,0.49-3.98,1.01-5.96,1.57
	C5.3,7.71,3.3,8.3,1.44,8.94L0,4.02z"/>
</svg>
